<?xml version="1.0" encoding="utf-8"?>
<!-- Generator: Adobe Illustrator 24.0.0, SVG Export Plug-In . SVG Version: 6.00 Build 0)  -->
<svg version="1.1" id="圖層_2" xmlns="http://www.w3.org/2000/svg" xmlns:xlink="http://www.w3.org/1999/xlink" x="0px" y="0px"
	 viewBox="0 0 260 90" style="enable-background:new 0 0 260 90;" xml:space="preserve">
<style type="text/css">
	.st0{fill:#292C68;}
	.st1{fill:#624297;}
	.st2{fill:#C1414A;}
</style>
<g>
	<path class="st0" d="M10.12,31.45c-0.97,3.8-1.89,7-2.74,9.61L4,40.61c0.2-0.6,0.46-1.5,0.78-2.7c1.01-2.9,1.71-5.15,2.09-6.75
		L10.12,31.45z M25.32,11.64L26,7.74h4.35l0.85-2.25l5.02,0.45l-0.77,1.8h8.55l-1.01,5.7h2.25l-0.69,3.9H22.66l0.5-2.85
		c-0.63,0.7-1.63,1.85-3.01,3.45c-1.62,1.8-2.81,3.15-3.57,4.05l3.19-1.05c0.14,0.9,0.34,2.3,0.61,4.2c0.28,1.8,0.49,3.2,0.61,4.2
		l-3.94,1.05l-0.23-2.1c-0.3,0-0.6,0-0.9,0l-2.41,13.66H8.86l2.36-13.36c-0.12,0.1-0.28,0.15-0.48,0.15c-1.1,0-2.18,0.15-3.23,0.45
		l-0.83-4.65h2.1c1.35-1.4,2.91-3.2,4.71-5.4c-1.04-0.9-2.75-2.3-5.11-4.2c-0.18-0.1-0.32-0.2-0.4-0.3l3.16-3.45l0.8,0.6
		c1.15-1.4,2.56-3.45,4.24-6.15l4.81,1.65c-1.96,2.6-3.88,4.95-5.75,7.05l1.47,1.05c1.26-1.5,2.48-3,3.65-4.5l3.9,2.55H28l0.62-1.8
		H25.32z M16.34,24.25l-0.28-1.8l-1.67,1.8H16.34z M23.65,18.54h19.06l-1.59,9.01h-5.85l-0.24,1.35h6.75l-0.69,3.9h-6.75L34,34.75
		h7.35l-0.63,3.6h-7.35l-0.58,3.3h-5.1l0.58-3.3H19.1l0.1,0.3l-3.16,0.9c-0.03-0.4-0.03-0.95-0.01-1.65
		c-0.15-3.1-0.31-5.35-0.46-6.75l2.81-0.6c0.32,2.7,0.57,5,0.73,6.9l0.48-2.7h1.2l1.03-5.85h8.1l0.24-1.35h-8.1L23.65,18.54z
		 M25.64,32.8l-0.34,1.95h3.6l0.34-1.95H25.64z M28.09,22.3l-0.29,1.65h9l0.29-1.65H28.09z M38.22,11.64h-4.35l-0.77,1.8h4.8
		L38.22,11.64z"/>
	<path class="st0" d="M11.68,82.14H5.52L9.1,61.88h27.62l-1.84-1.5c-6.32,0.1-15.06,0.3-26.22,0.6l0.17-4.35h3.15
		c1.04-0.8,2.2-1.7,3.48-2.7H7.2l0.82-4.65h14.86l0.53-3h6l-0.53,3h14.86l-0.82,4.65h-7.5c0.26,0.2,0.66,0.5,1.19,0.9
		c1.59,1.2,3.32,2.45,5.19,3.75l-4.34,3.3h0.9L35.8,76.44c-0.44,3.6-2.66,5.45-6.68,5.55c-2,0-4.5,0-7.5,0l-0.41-4.5
		c1.58,0.1,3.58,0.15,5.98,0.15c1.48,0.1,2.26-0.35,2.34-1.35H12.71L11.68,82.14z M13.63,71.04l-0.29,1.65H30.3l0.29-1.65H13.63z
		 M14.56,65.78l-0.29,1.65h16.96l0.29-1.65H14.56z M19.35,56.48c4.8,0,8.36-0.05,10.68-0.15l-2.88-2.4H22.8L19.35,56.48z"/>
</g>
<path class="st1" d="M95.12,38c-0.8-0.5-1.65-0.77-2.45-0.77c-0.44,0-0.96,0.08-1.47,0.22c-0.6,0.15-1.14,0.45-1.56,0.87
	c-0.48,0.46-0.88,1.13-1.18,1.97c-0.37,0.88-0.73,1.97-1.09,3.32l-3.99,14.4l-1.66,6.2c-0.21,0.77-0.25,1.41-0.15,1.9
	c0.06,0.74,0.31,1.34,0.7,1.73c0.14,0.21,0.46,0.54,0.89,0.92c0.55,0.49,1.12,0.73,1.72,0.73c0.54,0,1.18-0.17,1.92-0.52
	c0.77-0.3,1.37-0.82,1.89-1.62c0.75-1.07,1.22-1.99,1.44-2.82l0.04-0.15l-0.05-0.07c0.01-0.02,0.01-0.04,0.02-0.06
	c0.02-0.07,0.02-0.14,0.02-0.21c0-0.05,0-0.11,0.01-0.14l0.02-0.08l-0.01-0.08c-0.01-0.06,0.01-0.16,0.04-0.27
	c0.03-0.1,0.03-0.19,0.04-0.27c0-0.08,0.01-0.15,0.03-0.23l0.01-0.05l0-0.05c-0.03-0.67,0.05-1.35,0.23-2.04
	c0.02-0.06,0.04-0.17,0.08-0.33c0.09-0.4,0.25-1.13,0.53-2.16l1.28-4.78c0.27-1.01,0.55-2.05,0.92-3.2
	c0.16-0.61,0.32-1.13,0.46-1.56c0.1-0.33,0.19-0.61,0.26-0.86l0.23-0.86c0.09-0.34,0.27-0.76,0.46-1.21
	c0.11-0.41,0.29-0.83,0.48-1.28c0.11-0.41,0.27-0.75,0.41-1.03c0.2-0.52,0.4-1.03,0.7-1.6c0.08-0.31,0.18-0.56,0.24-0.74
	c0.04-0.11,0.07-0.2,0.09-0.26c0.14-0.54,0.05-1.11-0.33-1.81C95.95,38.7,95.55,38.31,95.12,38"/>
<path class="st1" d="M122.6,35.73c-1.47,0-2.94,0.29-4.48,0.88c-1.13,0.43-2.24,1.05-3.38,1.86c0.13-0.45,0.28-0.96,0.47-1.52
	c0.13-0.47,0.27-0.97,0.43-1.5c0.18-0.6,0.37-1.24,0.55-1.92c0.31-1.14,0.72-2.44,1.13-3.71l0.99-3.71c0.39-1.45,0.79-2.49,1.24-3.2
	c0.27-0.46,0.52-0.89,0.6-1.22c0.04-0.15,0.1-0.3,0.15-0.43c0.05-0.12,0.09-0.22,0.1-0.28c0.21-0.78-0.15-1.43-1.12-1.98
	c-0.92-0.36-1.65-0.52-2.39-0.52c-0.89,0-2.1,0.41-3.7,1.26c-0.79,0.47-1.33,0.82-1.81,1.17c-0.61,0.5-0.91,0.91-1.04,1.39
	c-0.12,0.45-0.12,1.07,0.01,1.74c-0.08,0.56-0.2,1.25-0.36,2.06c-0.21,1.02-0.39,1.95-0.52,2.92l-0.08,0.38
	c-0.28,1.25-0.54,2.43-0.85,3.6c-0.21,0.78-0.36,1.42-0.48,1.94c-0.08,0.34-0.14,0.62-0.2,0.84c-0.04,0.14-0.1,0.35-0.18,0.62
	c-0.16,0.54-0.41,1.33-0.68,2.37c-0.48,1.53-1.03,3.33-1.55,5.28l-0.04,0.15c-0.59,1.97-1.15,3.83-1.66,5.7
	c-0.61,2.03-1.01,3.54-1.31,4.65c-0.21,0.8-0.48,1.79-0.72,2.92c-0.34,1.28-0.67,2.5-0.93,3.71c-0.34,1.27-0.56,2.36-0.71,3.14
	c-0.2,0.74-0.28,1.22-0.33,1.5c-0.24,0.89-0.3,1.66-0.2,2.28c-0.04,0.68,0.2,1.28,0.73,1.82c0.66,0.75,1.46,1.12,2.46,1.12
	c0.53,0,1.1-0.1,1.71-0.3c0.47-0.15,0.99-0.51,1.7-1.17c0.4-0.45,0.78-1.05,1.12-1.82l0.08-0.21c0.1-0.26,0.19-0.51,0.27-0.75
	c0.61,0.89,1.54,1.54,2.78,1.94c1.38,0.55,2.96,0.81,4.84,0.81c2.49,0,4.69-0.6,6.71-1.83c1.94-1.16,3.61-2.61,5.11-4.43
	c1.44-1.77,2.68-3.72,3.7-5.78c0.94-2,1.66-3.94,2.15-5.76c1.28-4.8,1.06-8.7-0.66-11.61C130.49,37.2,127.23,35.73,122.6,35.73
	 M124.78,51.18c-1.16,4.31-2.65,7.5-4.43,9.48c-1.72,1.96-3.63,2.95-5.68,2.95c-2.18,0-3.56-0.77-4.25-2.36
	c-0.69-1.59-0.61-3.9,0.24-7.05c0.31-1.15,0.8-2.48,1.43-3.87c0.57-1.26,1.38-2.51,2.46-3.84c0.95-1.11,2.06-2.1,3.31-2.92
	c1.27-0.78,2.6-1.16,4.07-1.16c1.53,0,2.62,0.65,3.23,1.93C125.76,45.72,125.63,48.02,124.78,51.18"/>
<path class="st1" d="M167.21,41.62c-0.75-1.44-1.83-2.62-3.22-3.48c-1.42-0.89-3.26-1.34-5.49-1.34c-1.13,0-2.61,0.18-4.82,0.58
	c-2.11,0.46-4.11,1.14-5.94,2.03c-1.77,0.93-3.22,1.77-4.45,2.59c-1.42,0.95-2.31,2.1-2.66,3.4c-0.27,1.01-0.16,1.87,0.33,2.61
	c0.48,0.84,1.29,1.24,2.48,1.24c0.59,0,1.1-0.1,1.51-0.3c0.39-0.13,0.74-0.34,1.11-0.57l0.32-0.2c0.07-0.06,0.15-0.11,0.24-0.18
	c0.13-0.09,0.27-0.19,0.43-0.32c0.07-0.06,0.15-0.12,0.25-0.18c0.13-0.09,0.27-0.19,0.42-0.32c0.07-0.06,0.15-0.12,0.24-0.18
	c0.13-0.09,0.27-0.19,0.43-0.33c0.16-0.14,0.4-0.34,0.73-0.55c1.08-0.84,2.11-1.48,3.13-1.96c1.28-0.6,2.66-0.89,4.22-0.89
	c0.82,0,1.59,0.18,2.24,0.51c0.62,0.43,1.1,0.9,1.4,1.34c0.27,0.69,0.47,1.39,0.6,2.03c0.03,0.72-0.02,1.39-0.08,2.03
	c-0.64,0.07-1.32,0.12-2.05,0.17c-0.6,0.04-1.22,0.09-1.89,0.15c-1.71,0.22-3.45,0.51-5.18,0.86c-1.84,0.37-3.62,0.81-5.3,1.29
	c-1.76,0.57-3.44,1.3-4.87,2.09c-1.65,0.91-2.9,1.86-3.92,2.99c-1.16,1.19-1.91,2.48-2.3,3.93c-0.39,1.46-0.39,2.71,0.01,3.71
	c0.43,1.09,1.12,1.98,2.09,2.72c0.95,0.72,2.23,1.32,3.77,1.77c1.32,0.4,2.93,0.58,5.07,0.58c1.66,0,3.41-0.24,5.19-0.72
	c1.54-0.36,3.03-0.97,4.53-1.88c-0.22,1.15-0.17,2.07,0.14,2.78c0.34,1.11,1.31,1.67,2.88,1.67c0.82,0,1.52-0.15,2.21-0.47
	c0.61-0.32,1.1-0.63,1.49-1.07c0.41-0.46,0.67-0.91,0.99-1.57c0.06-0.24,0.14-0.47,0.22-0.72c0.09-0.27,0.18-0.55,0.26-0.85
	c0.11-0.43,0.21-0.86,0.31-1.29c0.1-0.43,0.19-0.85,0.31-1.28l0.71-2.64c0.44-1.65,0.82-3.32,1.19-4.93
	c0.35-1.55,0.8-3.21,1.23-4.83c0.45-1.67,0.66-3.38,0.65-5.24C168.33,44.71,167.94,43.15,167.21,41.62 M159.06,55.04l-1.33,4.74
	c-1.41,1.32-2.97,2.33-4.65,3c-1.83,0.7-3.6,1.05-5.42,1.05c-0.69,0-1.2-0.08-1.71-0.28c-0.5-0.12-0.91-0.34-1.34-0.74
	c-0.45-0.28-0.73-0.59-0.9-1c-0.16-0.33-0.18-0.74-0.04-1.25c0.31-1.15,1.07-2.06,2.28-2.71c1.41-0.8,2.8-1.37,4.25-1.75
	c1.65-0.43,3.3-0.71,5.03-0.85C156.73,55.12,157.99,55.05,159.06,55.04"/>
<path class="st2" d="M253.29,42.54c-0.79-1.37-1.99-2.58-3.71-3.7c-1.36-0.72-2.84-1.31-4.42-1.74c-1.76-0.38-3.46-0.58-5.04-0.58
	c-1.85,0-3.75,0.59-5.63,1.77c-2,1.26-3.8,2.77-5.48,4.62c-1.88,2.05-3.37,4.08-4.55,6.19c-1.33,2.26-2.28,4.48-2.9,6.79
	c-0.47,1.77-0.66,3.51-0.57,5.17c0.08,1.86,0.53,3.39,1.38,4.67c0.91,1.37,2.22,2.46,3.89,3.26c1.74,0.83,3.99,1.24,6.68,1.24
	c1.32,0,2.84-0.11,4.94-0.36c1.74-0.29,3.39-0.71,5.05-1.3c1.65-0.52,3.06-1.18,4.3-2.05c1.31-0.96,2.07-1.95,2.38-3.11
	c0.13-0.47,0.12-1.18-0.68-1.88c-0.69-0.43-1.29-0.62-1.96-0.62c-0.13,0-0.32,0.04-0.58,0.09l-0.3,0.07
	c-0.35,0.11-0.66,0.26-0.99,0.43l-0.36,0.18c-1.45,0.87-2.94,1.56-4.58,2.11c-1.64,0.66-3.26,0.97-4.93,0.97
	c-2.5,0-4.11-0.78-4.92-2.38c-0.79-1.55-0.97-3.39-0.56-5.62c0.71,0.42,1.49,0.75,2.31,0.97c0.95,0.35,2.19,0.52,3.78,0.52
	c2.05,0,3.9-0.25,5.83-0.8c2.11-0.64,3.88-1.4,5.4-2.31c1.59-0.87,3.02-1.95,4.25-3.2c1.2-1.24,2-2.56,2.36-3.93
	C254.21,45.96,254.09,44.18,253.29,42.54 M237.08,52.85c-1.76,0-2.99-0.28-3.68-0.87c-0.69-0.47-1.12-1.11-1.24-1.86
	c1.03-1.98,2.37-3.71,3.97-5.15c1.58-1.43,3.05-2.12,4.49-2.12c0.76,0,1.6,0.11,2.52,0.34c0.76,0.25,1.43,0.57,2.13,1.01
	c0.56,0.47,0.97,1,1.28,1.64c0.26,0.68,0.29,1.41,0.07,2.21c-0.17,0.62-0.55,1.21-1.15,1.76c-0.8,0.73-1.51,1.22-2.28,1.58
	c-0.86,0.4-1.85,0.76-2.95,1.05C239.1,52.71,238.09,52.85,237.08,52.85"/>
<path class="st2" d="M224.92,23.05c-1.15-0.91-2.09-1.05-2.57-1.05c-0.56,0.03-1.19,0.17-1.97,0.31c-0.95,0.16-1.68,0.45-2.31,0.81
	c-1.17,0.74-2.53,2.08-3.93,3.8c-1.56,1.83-3.09,3.87-4.55,6.03c-1.44,2.05-2.97,4.37-4.82,7.3c-0.53,0.85-1.06,1.7-1.58,2.53
	c-1.1,1.75-2.13,3.4-3.11,5.03c-0.63,1.01-1.22,1.95-1.77,2.82c-0.77,1.22-1.46,2.31-2.06,3.3c-0.83,1.27-1.63,2.48-2.27,3.41
	c-0.84-2.63-1.43-5.4-1.75-8.26c-0.44-2.89-0.59-5.69-0.48-8.57c0.03-2.82,0.24-5.84,0.61-8.94c0.15-1,0.32-2.17,0.56-3.33
	c0.25-1.21,0.38-2.27,0.42-3.35c0-0.53-0.15-1.03-0.47-1.51c-0.33-0.39-0.74-0.69-1.2-1.02c-0.49-0.22-0.93-0.37-1.36-0.51
	l-0.09-0.02c-0.51-0.07-1.03-0.14-1.45-0.14c-1.28,0-2.33,0.28-2.95,0.81c-0.58,0.54-0.99,1.24-1.21,2.09l-0.35,1.32l-0.08,0.07
	l-0.06,0.26c-1.7,3.49-3.24,7.32-4.58,11.37c-1.38,3.97-2.69,8.3-4,13.21l-1.24,4.63c-0.27,0.99-0.45,1.92-0.63,2.85
	c-0.26,0.99-0.54,2.01-0.7,2.87c-0.33,1.44-0.57,2.72-0.74,4.02c-0.14,1-0.18,1.68-0.14,2.06c0.06,1.48,0.9,2.26,2.43,2.26
	c0.28,0,0.71,0,1.23-0.15c0.47-0.08,1-0.23,1.49-0.44c0.54-0.17,1-0.53,1.39-0.85c0.35-0.29,0.7-0.64,0.85-1.17
	c0.11-0.4,0.14-0.74,0.18-1.11l0.02-0.23c-0.03-0.31-0.01-0.62,0.04-1.14c-0.07-0.69-0.08-1.38-0.02-2.07
	c0.11-1.36,0.52-3.39,1.2-6.44c0.64-2.87,1.53-6.19,2.56-10.04c0.37-1.36,0.74-2.77,1.19-4.21c0.17-0.64,0.37-1.28,0.59-1.93
	c-0.03,0.94-0.04,1.84-0.04,2.68c-0.06,1.6-0.02,3.34,0.12,5.31c0.24,3.46,0.72,6.65,1.47,9.75c0.71,3.21,1.79,5.94,3.21,8.06
	c0.44,0.88,1.24,1.33,2.4,1.33c0.71,0,1.34-0.15,1.94-0.47c0.63-0.33,1.2-0.83,1.65-1.25c0.42-0.35,0.91-0.95,1.64-1.99l0.05-0.08
	c0.55-0.83,1.1-1.67,1.75-2.65l1.75-2.79l0.37-0.64c0.32-0.56,0.6-1.05,0.85-1.42l6.46-10.69c1.63-2.69,3.47-5.5,5.5-8.36
	c-0.38,1.05-0.73,2.06-1.05,3.01c-0.63,1.85-1.19,3.7-1.68,5.51l-1.55,5.78c-0.31,1.14-0.59,2.21-0.79,3.21l-0.67,2.5
	c-0.12,0.43-0.31,1.15-0.49,2.07c-0.27,1.03-0.49,2.1-0.65,3.17c-0.17,1.14-0.35,2.29-0.48,3.28c-0.18,1.18-0.26,1.99-0.14,2.57
	c0.06,0.81,0.42,1.56,1.02,2.11c0.52,0.66,1.28,0.99,2.31,0.99c0.23,0,0.45-0.04,0.72-0.09l0.49-0.1c0.26-0.06,0.56-0.13,0.96-0.29
	c0.17-0.11,0.31-0.22,0.46-0.33c0.14-0.1,0.28-0.21,0.47-0.33c0.33-0.27,0.56-0.62,0.65-0.96c0.11-0.42,0.07-0.82-0.03-1.35
	c-0.05-0.15-0.06-0.29-0.02-0.43l0.04-0.15l-0.08-0.13c-0.03-0.04-0.04-0.15-0.02-0.22l0.02-0.07l-0.01-0.07
	c-0.14-0.88-0.16-1.6-0.08-2.37c0.01-0.76,0.1-1.6,0.28-2.51c0.25-1.41,0.61-2.78,0.97-4.12c0.31-1.42,0.62-2.81,1.01-4.26
	l2.56-9.56c0.74-2.75,1.44-5.06,2.21-7.25c0.82-2.31,1.68-4.57,2.66-6.94c0.06-0.21,0.17-0.48,0.31-0.79l0.1-0.24
	c0.18-0.43,0.35-0.84,0.63-1.34c0.19-0.45,0.34-0.78,0.57-1.17l0.04-0.08c0.05-0.18,0.11-0.33,0.16-0.48
	c0.06-0.15,0.11-0.3,0.15-0.44c0.13-0.5,0.02-0.88-0.13-1.21C225.12,23.28,225.02,23.16,224.92,23.05"/>
<path class="st1" d="M90.14,26.01c-2.32,0.47-4.59,0.67-6.31,0.79c-2.1,0.21-4.14,0.41-6.13,0.62l-0.52,1.51
	c-0.99,2.85-1.97,5.69-2.94,8.48c-1.18,3.22-2.22,6.55-3.19,10.17l-2.01,7.49c-0.58,2.15-1.05,4.45-1.53,7.45
	c-0.04,0.33-0.07,0.7-0.02,0.95l0.01,0.05l0,0.05c-0.03,0.35-0.05,0.68-0.02,1.01c-0.05,0.49-0.07,0.83-0.06,1.23l-0.02,0.24
	c-0.04,0.35-0.07,0.67-0.16,1c-0.29,1.08-0.92,1.87-1.88,2.36c-1.08,0.51-1.97,0.75-2.74,0.75c-0.42,0-0.88-0.07-1.33-0.14
	c-0.6-0.17-0.97-0.4-1.32-0.62c-0.41-0.13-0.8-0.44-1.1-0.89c-0.29-0.32-0.41-0.83-0.33-1.45c-0.02-0.89,0.25-2.39,0.71-4.66
	c0.44-2.14,1.05-4.67,1.81-7.5c1.31-4.88,2.66-9.34,4.12-13.64c1.41-4.3,2.93-8.57,4.63-13.03c-1.06,0.11-2.04,0.16-3.06,0.16
	c-1.21,0.14-2.45,0.21-3.65,0.28l-2.47,0.42c-0.91,0.14-1.82,0.22-2.64,0.22c-0.58,0-1.05-0.14-1.44-0.42
	c-0.48-0.21-0.96-0.61-1.28-1.08c-0.38-0.44-0.64-0.91-0.77-1.39c-0.16-0.45-0.18-1.01-0.04-1.53c0.13-0.5,0.4-0.92,0.8-1.25
	c0.3-0.31,0.76-0.55,1.2-0.76c0.44-0.17,0.9-0.24,1.37-0.31c0.21-0.04,0.41-0.07,0.61-0.11l0.57-0.1c1.26-0.08,2.47-0.15,3.76-0.22
	c1.19,0,2.39,0,3.68-0.14c2.87-0.14,5.76-0.4,8.82-0.68l0.35-0.03c3.11-0.21,6.21-0.57,9.24-1.07c0.4-0.07,0.83-0.21,1.24-0.34
	c0.36-0.06,0.64-0.16,0.97-0.27l0.25-0.09c0.23-0.07,0.45-0.13,0.67-0.18c0.21-0.05,0.41-0.1,0.63-0.17
	c0.46-0.08,0.98-0.16,1.41-0.16c0.4,0,0.81,0.12,1.25,0.25l0.28,0.1l1.25,0.94c0.1,0.14,0.19,0.27,0.29,0.4
	c0.19,0.26,0.39,0.54,0.54,0.84c0.21,0.59,0.25,1.14,0.13,1.6c-0.03,0.12-0.08,0.23-0.12,0.34l-2.13,2.12"/>
<path class="st1" d="M91.67,29.08c0.1-0.4-0.37,0.74-0.48,1.15c-0.43,1.59-0.09,2.91,0.99,3.9c0.91,0.93,2.1,1.39,3.63,1.39
	c1.34,0,2.47-0.35,3.46-1.06c1.05-0.76,1.77-1.83,2.13-3.19c0.39-1.46,0.15-2.7-0.77-3.84c-0.52-0.46-1.06-0.76-1.64-1.07
	c-1.92-0.67-3.57-0.49-5.64,0.83C93.35,27.19,91.8,28.54,91.67,29.08z"/>
</svg>
